<?xml version="1.0" standalone="no"?>
<!DOCTYPE svg PUBLIC "-//W3C//DTD SVG 20010904//EN"
 "http://www.w3.org/TR/2001/REC-SVG-20010904/DTD/svg10.dtd">
<svg version="1.0" xmlns="http://www.w3.org/2000/svg"
 width="640.000000pt" height="640.000000pt" viewBox="0 0 640.000000 640.000000"
 preserveAspectRatio="xMidYMid meet">
<metadata>
Created by potrace 1.14, written by Peter Selinger 2001-2017
</metadata>
<g transform="translate(0.000000,640.000000) scale(0.100000,-0.100000)"
fill="#000000" stroke="none">
<path d="M1319 6164 c-15 -19 -34 -50 -48 -81 -5 -11 -15 -24 -20 -28 -6 -3
-11 -19 -11 -35 0 -23 5 -31 25 -36 13 -3 56 -26 95 -50 40 -24 75 -44 78 -44
4 0 25 -16 47 -36 22 -19 52 -42 66 -51 28 -17 55 -53 40 -53 -6 0 -13 5 -16
10 -3 6 -24 10 -46 10 -21 0 -47 4 -57 9 -24 14 -321 53 -347 47 -29 -8 -37
-39 -25 -109 15 -95 -7 -88 286 -92 142 -2 290 -7 327 -11 66 -6 68 -7 51 -25
-9 -10 -33 -21 -53 -24 -20 -4 -43 -10 -52 -15 -9 -5 -33 -12 -52 -15 -20 -4
-41 -13 -48 -21 -6 -8 -16 -14 -22 -14 -5 0 -39 -13 -74 -30 -34 -16 -67 -30
-72 -30 -13 0 -108 -53 -186 -103 -191 -123 -328 -253 -457 -432 -4 -5 -20
-26 -36 -45 -45 -55 -148 -262 -183 -368 -17 -53 -37 -113 -44 -132 -60 -158
-89 -377 -89 -675 -1 -175 2 -211 22 -290 38 -152 43 -168 78 -243 19 -40 34
-79 34 -88 0 -30 124 -217 191 -288 38 -39 68 -77 69 -84 0 -11 -38 -69 -68
-102 -7 -8 -37 -62 -66 -119 -31 -62 -60 -107 -72 -111 -11 -5 -45 1 -82 13
-99 33 -154 0 -98 -59 34 -38 85 -138 104 -204 23 -83 18 -241 -11 -395 -50
-257 -44 -487 17 -649 41 -109 134 -253 194 -300 15 -11 35 -31 46 -44 10 -13
28 -28 40 -33 11 -5 35 -18 51 -29 44 -29 174 -90 207 -97 57 -11 60 -47 13
-147 -14 -29 -30 -77 -36 -107 -6 -30 -15 -72 -20 -94 -5 -22 -14 -69 -19
-105 -5 -36 -12 -75 -15 -88 -5 -19 -1 -22 24 -22 31 0 37 13 61 140 31 167
50 242 78 310 6 14 13 37 17 53 l6 28 118 -7 c192 -11 315 16 481 104 111 59
156 118 178 233 13 72 -6 212 -41 291 -32 71 -42 118 -27 118 6 0 35 -9 63
-21 92 -37 98 -39 113 -39 8 0 27 -9 42 -20 15 -11 52 -24 82 -29 30 -6 89
-17 130 -26 41 -8 99 -19 129 -25 30 -5 68 -14 85 -19 107 -32 462 -38 766
-11 58 5 242 13 410 19 168 6 332 15 365 21 33 6 96 15 140 20 156 19 270 38
298 49 16 6 38 11 50 11 12 0 35 7 51 15 47 25 68 19 96 -26 14 -23 35 -57 47
-77 13 -21 26 -44 29 -52 4 -8 15 -24 25 -35 10 -11 36 -55 58 -99 40 -76 73
-134 153 -263 21 -34 38 -67 38 -72 0 -5 6 -16 13 -23 7 -7 21 -35 31 -63 10
-27 24 -63 31 -80 7 -16 21 -50 30 -75 10 -25 23 -57 31 -72 8 -14 14 -35 14
-47 0 -11 9 -49 19 -83 11 -35 24 -82 31 -105 10 -39 14 -43 41 -43 29 0 30 1
23 38 -5 32 -24 103 -54 207 -14 50 -31 98 -53 145 -36 82 -57 144 -49 151 4
4 36 19 72 34 100 43 193 117 224 179 26 51 64 191 87 321 14 74 17 373 10
990 -3 283 -1 345 14 435 10 58 19 123 19 145 1 39 0 40 -34 43 -20 2 -81 -9
-135 -24 -150 -39 -155 -40 -155 -16 0 11 -7 25 -15 32 -8 7 -15 23 -15 36 0
18 10 28 46 43 47 21 120 74 141 101 6 9 33 38 60 66 27 27 60 66 72 87 12 20
25 37 28 37 3 0 29 -7 59 -16 56 -16 56 -16 184 16 24 6 49 15 55 19 5 5 21
12 34 16 30 9 110 69 134 100 9 12 20 43 23 67 6 42 4 46 -32 77 -37 33 -39
33 -107 28 -93 -8 -175 -48 -256 -126 -66 -63 -84 -69 -75 -23 8 41 -20 211
-45 267 -16 36 -31 55 -57 68 -45 22 -59 22 -100 -3 -49 -31 -74 -91 -74 -181
0 -90 19 -136 94 -228 29 -36 56 -74 59 -83 6 -18 -51 -101 -88 -128 -11 -8
-35 -29 -53 -47 -18 -18 -42 -33 -52 -33 -24 0 -26 13 -6 29 21 18 20 160 -1
236 -31 110 -57 142 -176 220 -74 49 -164 85 -211 85 -11 0 -39 9 -62 20 -41
21 -42 22 -28 48 31 61 39 137 39 387 0 203 -3 266 -18 335 -38 177 -78 277
-197 495 -21 39 -42 76 -46 84 -17 33 -138 189 -201 260 -135 150 -162 169
-388 278 -38 18 -77 38 -85 43 -28 17 -102 50 -114 50 -7 0 -17 5 -23 11 -7 7
-63 29 -125 50 -62 21 -144 49 -183 63 -38 14 -84 26 -102 26 -17 0 -34 4 -37
9 -4 5 -25 12 -49 16 -23 3 -62 13 -87 20 -43 13 -145 30 -355 57 -58 8 -192
13 -320 12 -198 0 -257 -5 -445 -33 -38 -6 -57 -5 -63 3 -8 12 -1 69 13 95 21
38 130 271 130 278 0 3 7 14 16 24 38 42 -36 89 -139 89 l-65 0 -16 -39 c-17
-45 -32 -121 -50 -259 -14 -109 -28 -127 -65 -84 -123 144 -339 366 -398 410
-36 26 -75 29 -94 6z m1566 -585 c33 -6 92 -15 130 -20 115 -14 185 -27 198
-37 7 -5 32 -14 57 -20 113 -27 137 -33 170 -46 19 -7 53 -19 75 -26 129 -40
345 -129 411 -169 17 -10 60 -35 95 -54 35 -19 78 -43 95 -53 16 -11 52 -32
79 -49 43 -26 135 -108 135 -120 0 -2 10 -15 23 -28 46 -50 246 -358 263 -407
7 -19 22 -57 34 -85 60 -139 88 -257 102 -440 10 -125 9 -183 -4 -349 -12
-140 -20 -201 -30 -207 -20 -13 -57 -11 -123 7 -33 8 -80 20 -105 25 -25 5
-79 15 -120 24 -41 8 -111 22 -155 30 -182 32 -294 56 -363 76 -67 20 -75 21
-105 6 -48 -23 -142 -48 -200 -54 -70 -6 -300 28 -322 48 -5 5 -16 9 -25 9
-24 0 -90 38 -142 81 -65 54 -179 106 -261 119 -78 12 -151 3 -222 -29 -46
-20 -135 -96 -135 -115 0 -6 -13 -25 -28 -43 -15 -18 -42 -50 -60 -73 -69 -83
-129 -93 -414 -68 -76 6 -140 9 -144 5 -4 -3 -10 -71 -14 -149 -8 -140 -34
-263 -75 -353 -8 -16 -16 -37 -20 -45 -16 -40 -36 -63 -80 -91 -66 -42 -148
-122 -211 -205 -68 -90 -83 -98 -77 -40 8 69 -8 73 -113 30 -49 -20 -125 -47
-168 -60 -72 -22 -81 -23 -97 -8 -9 8 -20 30 -23 48 -6 30 -92 135 -113 136
-10 1 -73 85 -73 99 0 5 -7 11 -15 15 -8 3 -15 12 -15 21 0 8 -4 15 -9 15 -12
0 -15 7 -102 182 -37 73 -69 149 -73 168 -6 39 -28 130 -47 200 -19 70 -16
372 5 510 36 240 84 429 122 487 8 12 14 28 14 34 0 11 85 186 113 234 126
212 263 354 511 528 50 36 266 147 284 147 11 0 75 31 82 40 5 6 25 11 145 41
22 5 49 13 60 18 47 22 338 67 485 75 120 7 534 -3 595 -15z m-28 -1824 c21
-10 61 -28 88 -41 28 -13 54 -24 59 -24 5 0 31 -16 57 -35 27 -19 52 -35 56
-35 3 0 14 -6 22 -13 15 -12 61 -33 141 -62 46 -17 133 -34 197 -39 57 -5 204
23 267 49 43 18 120 14 186 -10 54 -20 146 -42 250 -60 52 -9 154 -29 225 -45
72 -16 172 -36 223 -45 52 -9 101 -20 110 -25 50 -26 111 -50 128 -50 32 0
146 -39 190 -65 34 -20 83 -68 123 -120 16 -22 25 -72 24 -145 -1 -107 -28
-168 -102 -224 -73 -56 -75 -57 -220 -106 -128 -44 -313 -94 -481 -130 -52
-12 -113 -26 -135 -31 -44 -12 -178 -36 -240 -44 -22 -3 -98 -13 -170 -21 -71
-9 -163 -22 -204 -30 -40 -8 -87 -14 -105 -14 -17 0 -76 -6 -131 -14 -55 -9
-161 -22 -235 -31 -74 -9 -166 -20 -205 -26 -38 -5 -144 -14 -235 -19 -91 -5
-221 -13 -290 -19 -144 -12 -357 -6 -480 14 -247 40 -338 115 -348 291 -3 62
-1 84 11 95 20 21 54 93 62 132 8 37 51 163 67 191 39 72 66 190 74 321 4 61
10 112 15 115 4 3 84 1 178 -4 223 -11 271 -5 322 41 22 20 46 50 54 67 8 17
39 63 68 101 55 72 111 112 177 126 52 12 164 3 207 -16z m2594 -310 c8 -26 2
-35 -22 -35 -13 0 -19 7 -19 23 0 41 30 49 41 12z m39 -106 c0 -26 6 -41 18
-48 14 -8 15 -14 6 -28 -6 -10 -10 -38 -7 -61 2 -23 0 -42 -6 -42 -15 0 -61
60 -61 80 0 10 -7 20 -15 24 -10 4 -15 20 -15 51 0 33 4 45 15 45 8 0 15 -8
16 -17 1 -10 6 2 11 27 9 41 11 43 24 25 8 -10 14 -36 14 -56z m401 -98 c29
-27 22 -65 -13 -69 -14 -2 -32 -10 -38 -18 -7 -8 -25 -14 -40 -14 -15 0 -41
-7 -58 -16 -38 -19 -87 -15 -87 6 0 8 15 20 35 26 20 7 43 24 55 42 12 18 36
37 60 46 54 19 62 19 86 -3z m-4274 -426 c-10 -7 -17 -22 -17 -34 0 -12 -7
-33 -16 -47 -13 -19 -17 -51 -18 -137 -1 -106 1 -115 29 -166 29 -53 92 -116
136 -138 59 -28 118 -51 164 -63 69 -18 587 -25 770 -10 77 6 168 14 202 17
70 5 118 -10 66 -21 -39 -9 -98 -58 -130 -109 -32 -51 -29 -117 9 -197 41 -87
92 -120 183 -120 68 0 114 20 156 68 71 81 90 176 50 253 -32 62 -59 88 -103
100 -32 8 -39 14 -36 32 3 20 10 23 103 30 108 8 358 39 520 63 55 8 147 21
205 29 177 23 254 36 270 45 8 4 44 11 80 15 82 9 265 57 479 126 18 6 86 24
150 40 68 17 149 45 196 69 44 22 86 40 93 40 7 0 20 -17 29 -37 8 -21 25 -51
37 -68 58 -81 94 -159 108 -233 18 -98 -4 -336 -38 -400 -8 -15 -14 -32 -14
-39 0 -20 -59 -149 -91 -198 -10 -16 -23 -40 -29 -52 -16 -37 -161 -183 -218
-219 -43 -28 -150 -82 -247 -125 -11 -5 -63 -23 -115 -40 -97 -32 -110 -34
-329 -64 -69 -9 -128 -18 -133 -21 -7 -5 -121 -14 -413 -32 -66 -4 -365 -7
-665 -6 -533 0 -547 1 -645 23 -55 13 -122 27 -150 32 -27 4 -68 15 -90 23
-22 8 -46 15 -52 16 -7 0 -52 18 -100 41 -137 63 -178 83 -181 92 -2 4 -8 7
-12 7 -14 0 -132 91 -216 166 -95 85 -114 105 -114 119 0 6 -11 22 -25 35 -30
28 -125 184 -125 206 0 8 -6 27 -13 42 -44 88 -48 305 -8 422 33 98 77 185
129 259 53 75 133 161 149 161 6 0 14 7 17 16 3 8 11 12 17 8 9 -5 7 -11 -4
-19z m3888 -214 c-10 -32 -24 -152 -36 -301 -10 -137 -8 -328 7 -720 12 -296
-31 -641 -100 -803 -20 -46 -88 -97 -178 -132 -78 -31 -101 -27 -118 18 -6 18
-17 41 -22 52 -6 11 -27 52 -47 90 -19 39 -45 84 -58 101 -13 17 -23 34 -23
38 0 7 -68 109 -93 141 -29 37 -107 149 -107 154 1 16 21 30 100 70 93 46 179
98 213 128 73 64 181 195 209 253 17 36 35 67 38 70 11 8 59 156 86 260 18 71
24 121 24 202 0 132 -13 197 -54 268 -45 77 -50 99 -23 105 53 12 125 23 155
24 28 1 32 -2 27 -18z m-4286 -35 c8 -10 8 -22 0 -46 -17 -47 -5 -422 16 -520
18 -85 78 -214 143 -310 43 -63 227 -250 287 -292 54 -37 151 -205 177 -308
23 -91 27 -174 10 -246 -19 -79 -30 -96 -82 -129 -120 -75 -303 -125 -455
-125 -77 0 -243 38 -306 71 -21 10 -44 19 -51 19 -24 0 -162 96 -218 151 -55
54 -142 176 -153 214 -3 11 -18 49 -34 85 -28 65 -28 66 -28 280 1 195 3 227
28 341 31 147 37 310 12 343 -8 11 -15 34 -15 51 0 18 -3 35 -7 39 -4 4 -13
25 -19 46 -14 48 -4 62 36 47 20 -7 38 -8 56 -2 27 10 34 21 140 226 36 70 49
77 71 37 9 -18 22 -42 28 -52 21 -40 39 -41 94 -7 29 17 71 38 94 46 23 8 67
23 97 34 66 24 65 24 79 7z"/>
<path d="M3739 4859 c-75 -11 -177 -46 -216 -75 -17 -13 -35 -24 -40 -24 -31
0 -173 -180 -173 -220 0 -8 -8 -28 -17 -45 -13 -23 -17 -55 -16 -135 0 -98 3
-110 34 -173 60 -123 177 -207 349 -248 99 -23 163 -24 266 -3 282 57 418 262
344 519 -28 97 -67 169 -125 234 -57 62 -186 151 -220 151 -12 0 -39 7 -58 15
-40 16 -45 17 -128 4z m211 -106 c56 -28 190 -151 190 -176 0 -8 9 -24 20 -37
11 -13 20 -36 20 -51 0 -15 4 -30 9 -33 30 -19 30 -199 1 -257 -74 -143 -210
-206 -429 -197 -60 2 -116 9 -123 15 -7 6 -29 13 -49 17 -50 9 -155 86 -195
143 -18 26 -41 78 -51 114 -17 65 -16 68 6 160 23 93 72 199 108 231 30 27
174 91 243 108 57 14 73 15 130 3 36 -7 90 -25 120 -40z"/>
<path d="M3816 4535 c-29 -26 -31 -37 -16 -66 13 -23 62 -26 84 -3 21 21 20
57 -2 77 -25 23 -34 21 -66 -8z"/>
<path d="M1345 4754 c-82 -22 -193 -80 -225 -119 -8 -10 -31 -28 -50 -40 -19
-12 -44 -40 -56 -61 -11 -21 -25 -48 -31 -59 -50 -91 -73 -184 -73 -295 0 -83
3 -103 26 -148 23 -47 123 -152 145 -152 4 0 32 -11 61 -24 82 -37 203 -50
314 -33 50 8 106 21 125 30 19 8 55 20 82 27 26 7 50 17 53 21 3 5 21 16 41
26 54 25 134 111 168 178 83 167 12 400 -162 532 -78 58 -100 70 -168 95 -49
18 -211 32 -250 22z m175 -79 c73 -17 140 -44 140 -57 0 -4 5 -8 11 -8 13 0
95 -64 117 -90 7 -8 29 -44 49 -80 36 -62 37 -68 38 -165 0 -55 -3 -112 -7
-126 -11 -37 -125 -151 -173 -173 -22 -10 -58 -27 -81 -37 -52 -25 -179 -49
-252 -49 -135 0 -225 29 -309 97 -86 70 -108 252 -51 408 13 33 91 136 135
176 52 48 154 97 223 107 91 13 88 13 160 -3z"/>
<path d="M1412 4399 c-32 -12 -48 -52 -34 -84 25 -54 88 -48 103 9 13 47 -27
90 -69 75z"/>
<path d="M3002 3433 c-22 -56 -24 -80 -7 -97 9 -9 20 -16 25 -16 16 0 40 50
40 83 0 57 -40 77 -58 30z"/>
<path d="M2600 3392 c0 -28 54 -74 81 -70 32 4 34 21 4 57 -31 36 -85 45 -85
13z"/>
<path d="M4880 2423 c-14 -2 -39 -11 -57 -19 -17 -8 -35 -14 -40 -14 -17 -1
-63 -50 -82 -87 -10 -21 -22 -59 -26 -85 -6 -48 9 -128 24 -128 5 0 11 -10 15
-22 6 -25 61 -60 118 -76 91 -25 211 56 242 162 9 30 16 61 16 70 0 16 -28
128 -32 131 -2 0 -22 16 -45 34 -42 32 -85 43 -133 34z"/>
<path d="M2141 2140 c-11 -6 -6 -20 25 -67 38 -56 46 -71 77 -130 60 -118 79
-221 75 -408 -1 -79 1 -147 5 -151 14 -14 40 11 56 52 25 66 21 260 -8 364
-39 139 -100 256 -157 302 -56 45 -60 47 -73 38z"/>
<path d="M3683 2028 c-29 -38 -55 -125 -56 -187 -1 -97 26 -152 90 -181 72
-32 125 -21 199 39 33 25 63 57 69 69 5 12 15 22 22 22 7 0 44 -31 82 -69 74
-72 93 -81 184 -81 87 0 147 56 177 163 18 66 -1 154 -41 193 -17 16 -34 24
-43 21 -20 -8 -21 -47 -1 -73 9 -12 14 -43 15 -83 0 -104 -51 -164 -132 -154
-21 3 -49 16 -63 29 -14 13 -29 24 -33 24 -18 1 -61 82 -82 153 -35 117 -65
116 -96 -4 -12 -47 -27 -79 -46 -97 -15 -15 -28 -33 -28 -39 0 -7 -5 -13 -12
-13 -6 0 -19 -7 -28 -15 -10 -9 -39 -18 -66 -21 -44 -6 -52 -3 -77 21 -25 25
-27 34 -27 102 0 43 6 89 15 110 8 19 15 46 15 59 0 26 -21 32 -37 12z"/>
<path d="M5196 1923 c-6 -14 -5 -15 5 -6 7 7 10 15 7 18 -3 3 -9 -2 -12 -12z"/>
<path d="M5185 1880 c-3 -5 -2 -10 4 -10 5 0 13 5 16 10 3 6 2 10 -4 10 -5 0
-13 -4 -16 -10z"/>
<path d="M2706 1661 c-19 -7 -19 -8 2 -13 15 -4 22 -2 22 8 0 8 -1 14 -2 13
-2 0 -12 -4 -22 -8z"/>
<path d="M5249 6070 c-26 -4 -56 -13 -67 -19 -11 -6 -29 -11 -39 -11 -10 0
-42 -11 -70 -25 -39 -17 -53 -30 -53 -45 0 -23 32 -27 90 -10 29 8 37 7 47 -7
17 -22 -5 -47 -64 -73 -24 -10 -46 -27 -50 -37 -4 -10 -17 -32 -30 -49 -26
-34 -32 -110 -12 -143 7 -10 9 -30 5 -46 l-7 -28 -27 26 c-55 51 -93 67 -162
67 -77 -1 -151 -35 -187 -88 -41 -62 -43 -233 -3 -341 54 -148 192 -181 327
-78 65 49 113 141 113 217 0 46 6 48 76 24 35 -12 65 -14 113 -9 91 9 182 24
206 34 11 5 35 15 53 21 51 20 65 57 58 154 -13 193 -35 267 -91 319 -29 27
-34 28 -120 26 -50 -2 -96 0 -102 4 -23 14 0 38 65 67 55 26 63 32 52 45 -13
16 -47 17 -121 5z m188 -209 c25 -24 41 -100 23 -111 -6 -4 -51 -15 -98 -24
-181 -35 -217 -46 -234 -69 -17 -22 -17 -22 20 -25 20 -2 53 1 72 7 47 13 165
39 217 47 32 5 44 3 47 -7 23 -82 27 -118 14 -138 -23 -37 -95 -63 -203 -73
-170 -15 -160 -15 -160 7 0 15 9 21 42 27 23 4 50 11 60 16 10 5 36 12 58 16
22 4 66 14 97 24 48 14 58 21 58 40 0 21 -3 22 -42 16 -83 -12 -184 -34 -241
-52 l-58 -20 -16 31 c-9 17 -22 59 -30 92 -7 33 -16 70 -19 82 -5 17 2 30 26
53 18 16 41 30 52 30 11 0 34 7 51 15 38 17 122 32 193 34 37 1 56 -4 71 -18z
m-529 -300 c40 -25 50 -38 60 -76 30 -111 7 -219 -57 -264 -35 -25 -104 -51
-136 -51 -40 0 -91 59 -109 127 -19 75 -21 222 -3 246 18 26 116 58 160 53 20
-2 59 -18 85 -35z"/>
<path d="M5843 5738 c-41 -9 -63 -34 -49 -57 4 -5 41 -9 85 -8 98 1 141 -20
153 -73 8 -40 -1 -160 -12 -160 -4 0 -10 -12 -13 -27 -3 -16 -8 -39 -12 -53
-3 -14 -1 -32 5 -40 9 -13 15 -9 41 20 59 69 86 217 53 295 -15 37 -61 84 -96
97 -32 13 -111 16 -155 6z"/>
<path d="M5490 5375 c-9 -11 -7 -19 14 -40 42 -42 34 -50 -61 -61 -52 -7 -56
-6 -84 26 -35 38 -49 32 -52 -25 -2 -37 -3 -38 -55 -51 -67 -17 -92 -31 -92
-50 0 -24 26 -27 103 -10 41 9 80 14 88 11 24 -9 61 -75 50 -88 -5 -7 -28 -32
-50 -56 -79 -85 -38 -102 74 -31 41 25 47 25 81 -10 32 -32 84 -42 84 -15 0
17 -17 50 -39 78 -12 15 -13 23 -2 53 12 32 11 38 -4 53 -13 12 -19 13 -22 4
-8 -22 -60 -16 -66 7 -3 11 -2 22 1 24 13 7 127 29 146 28 29 -2 56 17 56 38
0 19 -14 26 -70 32 -22 3 -25 7 -22 40 3 28 -1 39 -17 47 -27 15 -46 14 -61
-4z"/>
<path d="M5913 5104 c-6 -16 19 -44 38 -44 11 0 21 38 14 50 -10 16 -45 12
-52 -6z"/>
</g>
</svg>
